<?xml version="1.0" encoding="utf-8"?>
<!-- Svg Vector Icons : http://www.onlinewebfonts.com/icon -->
<!DOCTYPE svg PUBLIC "-//W3C//DTD SVG 1.1//EN" "http://www.w3.org/Graphics/SVG/1.1/DTD/svg11.dtd">
<svg version="1.1" xmlns="http://www.w3.org/2000/svg" xmlns:xlink="http://www.w3.org/1999/xlink" x="0px" y="0px" viewBox="0 0 256 256" enable-background="new 0 0 256 256" xml:space="preserve">
<metadata> Svg Vector Icons : http://www.onlinewebfonts.com/icon </metadata>
<g><g><path fill="#000000" d="M153.5,27c-7-6.5-16.2-10.2-26-10.2c-9.8,0-19.1,3.6-26,10.2L10,113.3l10.4,9.8l11.3-10.7v105.9c0,5.6,2.3,10.8,6.5,14.7c4.2,3.9,9.7,6.1,15.6,6.1h147.2c5.9,0,11.4-2.2,15.6-6.1c4.2-3.9,6.5-9.2,6.5-14.7V112.4l12.4,11.7l10.4-9.8L153.5,27L153.5,27z M149.5,225.3h-44.2v-76.4c0-1.8,0.7-3.6,2.2-4.9c1.4-1.3,3.3-2,5.2-2h29.4c1.9,0,3.8,0.7,5.2,2c1.4,1.3,2.2,3.1,2.2,4.9L149.5,225.3L149.5,225.3z M208.4,218.3c0,1.9-0.8,3.6-2.2,4.9c-1.4,1.3-3.3,2-5.2,2h-36.8v-76.4c0-5.3-2.2-10.7-6.5-14.7s-10-6.1-15.6-6.1h-29.4c-5.7,0-11.3,2-15.6,6.1c-4.3,4.1-6.5,9.4-6.5,14.7v76.4H53.8c-2,0-3.8-0.7-5.2-2s-2.2-3.1-2.2-4.9V98.5l65.4-61.7c4.2-3.9,9.7-6.1,15.6-6.1s11.4,2.2,15.6,6.1l65.4,61.7L208.4,218.3L208.4,218.3z"/></g></g>
</svg>